<?xml version="1.0" encoding="utf-8" standalone="no"?>
<!DOCTYPE svg PUBLIC "-//W3C//DTD SVG 1.1//EN"
  "http://www.w3.org/Graphics/SVG/1.1/DTD/svg11.dtd">
<svg height="360pt" version="1.1" viewBox="0 0 432 360" width="432pt" xmlns="http://www.w3.org/2000/svg" xmlns:xlink="http://www.w3.org/1999/xlink">
 <metadata>
  <rdf:RDF xmlns:cc="http://creativecommons.org/ns#" xmlns:dc="http://purl.org/dc/elements/1.1/" xmlns:rdf="http://www.w3.org/1999/02/22-rdf-syntax-ns#">
   <cc:Work>
    <dc:type rdf:resource="http://purl.org/dc/dcmitype/StillImage"/>
    <dc:date>2021-10-19T15:34:19.916918</dc:date>
    <dc:format>image/svg+xml</dc:format>
    <dc:creator>
     <cc:Agent>
      <dc:title>Matplotlib v3.4.2, https://matplotlib.org/</dc:title>
     </cc:Agent>
    </dc:creator>
   </cc:Work>
  </rdf:RDF>
 </metadata>
 <defs>
  <style type="text/css">*{stroke-linecap:butt;stroke-linejoin:round;}</style>
 </defs>
 <g id="figure_1">
  <g id="patch_1">
   <path d="M 0 360 
L 432 360 
L 432 0 
L 0 0 
z
" style="fill:none;"/>
  </g>
  <g id="axes_1">
   <g id="patch_2">
    <path d="M 81.1 268.15 
L 396.881445 268.15 
L 396.881445 63.19 
L 81.1 63.19 
z
" style="fill:#ffffff;"/>
   </g>
   <g id="matplotlib.axis_1">
    <g id="xtick_1">
     <g id="line2d_1">
      <path clip-path="url(#pbb8e309500)" d="M 81.1 268.15 
L 81.1 63.19 
" style="fill:none;stroke:#b0b0b0;stroke-linecap:square;stroke-width:0.8;"/>
     </g>
     <g id="line2d_2">
      <defs>
       <path d="M 0 0 
L 0 3.5 
" id="m5ccd8a38ef" style="stroke:#000000;stroke-width:0.8;"/>
      </defs>
      <g>
       <use style="stroke:#000000;stroke-width:0.8;" x="81.1" xlink:href="#m5ccd8a38ef" y="268.15"/>
      </g>
     </g>
     <g id="text_1">
      <!-- 0 -->
      <g transform="translate(74.7375 290.346875)scale(0.2 -0.2)">
       <defs>
        <path d="M 2034 4250 
Q 1547 4250 1301 3770 
Q 1056 3291 1056 2328 
Q 1056 1369 1301 889 
Q 1547 409 2034 409 
Q 2525 409 2770 889 
Q 3016 1369 3016 2328 
Q 3016 3291 2770 3770 
Q 2525 4250 2034 4250 
z
M 2034 4750 
Q 2819 4750 3233 4129 
Q 3647 3509 3647 2328 
Q 3647 1150 3233 529 
Q 2819 -91 2034 -91 
Q 1250 -91 836 529 
Q 422 1150 422 2328 
Q 422 3509 836 4129 
Q 1250 4750 2034 4750 
z
" id="DejaVuSans-30" transform="scale(0.015625)"/>
       </defs>
       <use xlink:href="#DejaVuSans-30"/>
      </g>
     </g>
    </g>
    <g id="xtick_2">
     <g id="line2d_3">
      <path clip-path="url(#pbb8e309500)" d="M 160.045361 268.15 
L 160.045361 63.19 
" style="fill:none;stroke:#b0b0b0;stroke-linecap:square;stroke-width:0.8;"/>
     </g>
     <g id="line2d_4">
      <g>
       <use style="stroke:#000000;stroke-width:0.8;" x="160.045361" xlink:href="#m5ccd8a38ef" y="268.15"/>
      </g>
     </g>
     <g id="text_2">
      <!-- $\dfrac{\pi}{2}$ -->
      <g transform="translate(152.345361 295.35)scale(0.2 -0.2)">
       <defs>
        <path d="M 584 3500 
L 3938 3500 
L 3825 2925 
L 3384 2925 
L 2966 775 
Q 2922 550 2981 450 
Q 3038 353 3209 353 
Q 3256 353 3325 363 
Q 3397 369 3419 372 
L 3338 -44 
Q 3222 -84 3103 -103 
Q 2981 -122 2866 -122 
Q 2491 -122 2388 81 
Q 2284 288 2391 838 
L 2797 2925 
L 1506 2925 
L 938 0 
L 350 0 
L 919 2925 
L 472 2925 
L 584 3500 
z
" id="DejaVuSans-Oblique-3c0" transform="scale(0.015625)"/>
        <path d="M 1228 531 
L 3431 531 
L 3431 0 
L 469 0 
L 469 531 
Q 828 903 1448 1529 
Q 2069 2156 2228 2338 
Q 2531 2678 2651 2914 
Q 2772 3150 2772 3378 
Q 2772 3750 2511 3984 
Q 2250 4219 1831 4219 
Q 1534 4219 1204 4116 
Q 875 4013 500 3803 
L 500 4441 
Q 881 4594 1212 4672 
Q 1544 4750 1819 4750 
Q 2544 4750 2975 4387 
Q 3406 4025 3406 3419 
Q 3406 3131 3298 2873 
Q 3191 2616 2906 2266 
Q 2828 2175 2409 1742 
Q 1991 1309 1228 531 
z
" id="DejaVuSans-32" transform="scale(0.015625)"/>
       </defs>
       <use transform="translate(2 46.3125)" xlink:href="#DejaVuSans-Oblique-3c0"/>
       <use transform="translate(0 -61.0625)" xlink:href="#DejaVuSans-32"/>
       <path d="M 0 19.40625 
L 0 25.65625 
L 63.623047 25.65625 
L 63.623047 19.40625 
L 0 19.40625 
z
"/>
      </g>
     </g>
    </g>
    <g id="xtick_3">
     <g id="line2d_5">
      <path clip-path="url(#pbb8e309500)" d="M 238.990723 268.15 
L 238.990723 63.19 
" style="fill:none;stroke:#b0b0b0;stroke-linecap:square;stroke-width:0.8;"/>
     </g>
     <g id="line2d_6">
      <g>
       <use style="stroke:#000000;stroke-width:0.8;" x="238.990723" xlink:href="#m5ccd8a38ef" y="268.15"/>
      </g>
     </g>
     <g id="text_3">
      <!-- $\pi$ -->
      <g transform="translate(232.890723 290.346875)scale(0.2 -0.2)">
       <use transform="translate(0 0.3125)" xlink:href="#DejaVuSans-Oblique-3c0"/>
      </g>
     </g>
    </g>
    <g id="xtick_4">
     <g id="line2d_7">
      <path clip-path="url(#pbb8e309500)" d="M 317.936084 268.15 
L 317.936084 63.19 
" style="fill:none;stroke:#b0b0b0;stroke-linecap:square;stroke-width:0.8;"/>
     </g>
     <g id="line2d_8">
      <g>
       <use style="stroke:#000000;stroke-width:0.8;" x="317.936084" xlink:href="#m5ccd8a38ef" y="268.15"/>
      </g>
     </g>
     <g id="text_4">
      <!-- $\dfrac{3\pi}{2}$ -->
      <g transform="translate(304.236084 299.15)scale(0.2 -0.2)">
       <defs>
        <path d="M 2597 2516 
Q 3050 2419 3304 2112 
Q 3559 1806 3559 1356 
Q 3559 666 3084 287 
Q 2609 -91 1734 -91 
Q 1441 -91 1130 -33 
Q 819 25 488 141 
L 488 750 
Q 750 597 1062 519 
Q 1375 441 1716 441 
Q 2309 441 2620 675 
Q 2931 909 2931 1356 
Q 2931 1769 2642 2001 
Q 2353 2234 1838 2234 
L 1294 2234 
L 1294 2753 
L 1863 2753 
Q 2328 2753 2575 2939 
Q 2822 3125 2822 3475 
Q 2822 3834 2567 4026 
Q 2313 4219 1838 4219 
Q 1578 4219 1281 4162 
Q 984 4106 628 3988 
L 628 4550 
Q 988 4650 1302 4700 
Q 1616 4750 1894 4750 
Q 2613 4750 3031 4423 
Q 3450 4097 3450 3541 
Q 3450 3153 3228 2886 
Q 3006 2619 2597 2516 
z
" id="DejaVuSans-33" transform="scale(0.015625)"/>
       </defs>
       <use transform="translate(0 45.78125)" xlink:href="#DejaVuSans-33"/>
       <use transform="translate(63.623047 45.78125)" xlink:href="#DejaVuSans-Oblique-3c0"/>
       <use transform="translate(30 -61.59375)" xlink:href="#DejaVuSans-32"/>
       <path d="M 0 18.875 
L 0 25.125 
L 123.828125 25.125 
L 123.828125 18.875 
L 0 18.875 
z
"/>
      </g>
     </g>
    </g>
    <g id="xtick_5">
     <g id="line2d_9">
      <path clip-path="url(#pbb8e309500)" d="M 396.881445 268.15 
L 396.881445 63.19 
" style="fill:none;stroke:#b0b0b0;stroke-linecap:square;stroke-width:0.8;"/>
     </g>
     <g id="line2d_10">
      <g>
       <use style="stroke:#000000;stroke-width:0.8;" x="396.881445" xlink:href="#m5ccd8a38ef" y="268.15"/>
      </g>
     </g>
     <g id="text_5">
      <!-- $2\pi$ -->
      <g transform="translate(384.481445 290.346875)scale(0.2 -0.2)">
       <use transform="translate(0 0.78125)" xlink:href="#DejaVuSans-32"/>
       <use transform="translate(63.623047 0.78125)" xlink:href="#DejaVuSans-Oblique-3c0"/>
      </g>
     </g>
    </g>
    <g id="text_6">
     <!-- $\theta$ [rad] -->
     <g transform="translate(205.290723 330.746875)scale(0.2 -0.2)">
      <defs>
       <path d="M 2913 2219 
L 925 2219 
Q 791 1284 928 888 
Q 1100 400 1566 400 
Q 2034 400 2391 891 
Q 2703 1322 2913 2219 
z
M 3009 2750 
Q 3094 3638 2984 3950 
Q 2813 4444 2353 4444 
Q 1875 4444 1525 3956 
Q 1250 3563 1034 2750 
L 3009 2750 
z
M 2444 4913 
Q 3194 4913 3494 4250 
Q 3794 3591 3566 2422 
Q 3341 1256 2781 594 
Q 2225 -72 1475 -72 
Q 722 -72 425 594 
Q 128 1256 353 2422 
Q 581 3591 1134 4250 
Q 1691 4913 2444 4913 
z
" id="DejaVuSans-Oblique-3b8" transform="scale(0.015625)"/>
       <path id="DejaVuSans-20" transform="scale(0.015625)"/>
       <path d="M 550 4863 
L 1875 4863 
L 1875 4416 
L 1125 4416 
L 1125 -397 
L 1875 -397 
L 1875 -844 
L 550 -844 
L 550 4863 
z
" id="DejaVuSans-5b" transform="scale(0.015625)"/>
       <path d="M 2631 2963 
Q 2534 3019 2420 3045 
Q 2306 3072 2169 3072 
Q 1681 3072 1420 2755 
Q 1159 2438 1159 1844 
L 1159 0 
L 581 0 
L 581 3500 
L 1159 3500 
L 1159 2956 
Q 1341 3275 1631 3429 
Q 1922 3584 2338 3584 
Q 2397 3584 2469 3576 
Q 2541 3569 2628 3553 
L 2631 2963 
z
" id="DejaVuSans-72" transform="scale(0.015625)"/>
       <path d="M 2194 1759 
Q 1497 1759 1228 1600 
Q 959 1441 959 1056 
Q 959 750 1161 570 
Q 1363 391 1709 391 
Q 2188 391 2477 730 
Q 2766 1069 2766 1631 
L 2766 1759 
L 2194 1759 
z
M 3341 1997 
L 3341 0 
L 2766 0 
L 2766 531 
Q 2569 213 2275 61 
Q 1981 -91 1556 -91 
Q 1019 -91 701 211 
Q 384 513 384 1019 
Q 384 1609 779 1909 
Q 1175 2209 1959 2209 
L 2766 2209 
L 2766 2266 
Q 2766 2663 2505 2880 
Q 2244 3097 1772 3097 
Q 1472 3097 1187 3025 
Q 903 2953 641 2809 
L 641 3341 
Q 956 3463 1253 3523 
Q 1550 3584 1831 3584 
Q 2591 3584 2966 3190 
Q 3341 2797 3341 1997 
z
" id="DejaVuSans-61" transform="scale(0.015625)"/>
       <path d="M 2906 2969 
L 2906 4863 
L 3481 4863 
L 3481 0 
L 2906 0 
L 2906 525 
Q 2725 213 2448 61 
Q 2172 -91 1784 -91 
Q 1150 -91 751 415 
Q 353 922 353 1747 
Q 353 2572 751 3078 
Q 1150 3584 1784 3584 
Q 2172 3584 2448 3432 
Q 2725 3281 2906 2969 
z
M 947 1747 
Q 947 1113 1208 752 
Q 1469 391 1925 391 
Q 2381 391 2643 752 
Q 2906 1113 2906 1747 
Q 2906 2381 2643 2742 
Q 2381 3103 1925 3103 
Q 1469 3103 1208 2742 
Q 947 2381 947 1747 
z
" id="DejaVuSans-64" transform="scale(0.015625)"/>
       <path d="M 1947 4863 
L 1947 -844 
L 622 -844 
L 622 -397 
L 1369 -397 
L 1369 4416 
L 622 4416 
L 622 4863 
L 1947 4863 
z
" id="DejaVuSans-5d" transform="scale(0.015625)"/>
      </defs>
      <use transform="translate(0 0.234375)" xlink:href="#DejaVuSans-Oblique-3b8"/>
      <use transform="translate(61.181641 0.234375)" xlink:href="#DejaVuSans-20"/>
      <use transform="translate(92.96875 0.234375)" xlink:href="#DejaVuSans-5b"/>
      <use transform="translate(131.982422 0.234375)" xlink:href="#DejaVuSans-72"/>
      <use transform="translate(173.095703 0.234375)" xlink:href="#DejaVuSans-61"/>
      <use transform="translate(234.375 0.234375)" xlink:href="#DejaVuSans-64"/>
      <use transform="translate(297.851562 0.234375)" xlink:href="#DejaVuSans-5d"/>
     </g>
    </g>
   </g>
   <g id="matplotlib.axis_2">
    <g id="ytick_1">
     <g id="line2d_11">
      <path clip-path="url(#pbb8e309500)" d="M 81.1 268.15 
L 396.881445 268.15 
" style="fill:none;stroke:#b0b0b0;stroke-linecap:square;stroke-width:0.8;"/>
     </g>
     <g id="line2d_12">
      <defs>
       <path d="M 0 0 
L -3.5 0 
" id="m5daaddab6c" style="stroke:#000000;stroke-width:0.8;"/>
      </defs>
      <g>
       <use style="stroke:#000000;stroke-width:0.8;" x="81.1" xlink:href="#m5daaddab6c" y="268.15"/>
      </g>
     </g>
     <g id="text_7">
      <!-- −2 -->
      <g transform="translate(44.615625 275.748437)scale(0.2 -0.2)">
       <defs>
        <path d="M 678 2272 
L 4684 2272 
L 4684 1741 
L 678 1741 
L 678 2272 
z
" id="DejaVuSans-2212" transform="scale(0.015625)"/>
       </defs>
       <use xlink:href="#DejaVuSans-2212"/>
       <use x="83.789062" xlink:href="#DejaVuSans-32"/>
      </g>
     </g>
    </g>
    <g id="ytick_2">
     <g id="line2d_13">
      <path clip-path="url(#pbb8e309500)" d="M 81.1 216.91 
L 396.881445 216.91 
" style="fill:none;stroke:#b0b0b0;stroke-linecap:square;stroke-width:0.8;"/>
     </g>
     <g id="line2d_14">
      <g>
       <use style="stroke:#000000;stroke-width:0.8;" x="81.1" xlink:href="#m5daaddab6c" y="216.91"/>
      </g>
     </g>
     <g id="text_8">
      <!-- −1 -->
      <g transform="translate(44.615625 224.508437)scale(0.2 -0.2)">
       <defs>
        <path d="M 794 531 
L 1825 531 
L 1825 4091 
L 703 3866 
L 703 4441 
L 1819 4666 
L 2450 4666 
L 2450 531 
L 3481 531 
L 3481 0 
L 794 0 
L 794 531 
z
" id="DejaVuSans-31" transform="scale(0.015625)"/>
       </defs>
       <use xlink:href="#DejaVuSans-2212"/>
       <use x="83.789062" xlink:href="#DejaVuSans-31"/>
      </g>
     </g>
    </g>
    <g id="ytick_3">
     <g id="line2d_15">
      <path clip-path="url(#pbb8e309500)" d="M 81.1 165.67 
L 396.881445 165.67 
" style="fill:none;stroke:#b0b0b0;stroke-linecap:square;stroke-width:0.8;"/>
     </g>
     <g id="line2d_16">
      <g>
       <use style="stroke:#000000;stroke-width:0.8;" x="81.1" xlink:href="#m5daaddab6c" y="165.67"/>
      </g>
     </g>
     <g id="text_9">
      <!-- 0 -->
      <g transform="translate(61.375 173.268438)scale(0.2 -0.2)">
       <use xlink:href="#DejaVuSans-30"/>
      </g>
     </g>
    </g>
    <g id="ytick_4">
     <g id="line2d_17">
      <path clip-path="url(#pbb8e309500)" d="M 81.1 114.43 
L 396.881445 114.43 
" style="fill:none;stroke:#b0b0b0;stroke-linecap:square;stroke-width:0.8;"/>
     </g>
     <g id="line2d_18">
      <g>
       <use style="stroke:#000000;stroke-width:0.8;" x="81.1" xlink:href="#m5daaddab6c" y="114.43"/>
      </g>
     </g>
     <g id="text_10">
      <!-- 1 -->
      <g transform="translate(61.375 122.028438)scale(0.2 -0.2)">
       <use xlink:href="#DejaVuSans-31"/>
      </g>
     </g>
    </g>
    <g id="ytick_5">
     <g id="line2d_19">
      <path clip-path="url(#pbb8e309500)" d="M 81.1 63.19 
L 396.881445 63.19 
" style="fill:none;stroke:#b0b0b0;stroke-linecap:square;stroke-width:0.8;"/>
     </g>
     <g id="line2d_20">
      <g>
       <use style="stroke:#000000;stroke-width:0.8;" x="81.1" xlink:href="#m5daaddab6c" y="63.19"/>
      </g>
     </g>
     <g id="text_11">
      <!-- 2 -->
      <g transform="translate(61.375 70.788438)scale(0.2 -0.2)">
       <use xlink:href="#DejaVuSans-32"/>
      </g>
     </g>
    </g>
    <g id="text_12">
     <!-- Trigonometric functions -->
     <g transform="translate(36.45625 283.552813)rotate(-90)scale(0.2 -0.2)">
      <defs>
       <path d="M -19 4666 
L 3928 4666 
L 3928 4134 
L 2272 4134 
L 2272 0 
L 1638 0 
L 1638 4134 
L -19 4134 
L -19 4666 
z
" id="DejaVuSans-54" transform="scale(0.015625)"/>
       <path d="M 603 3500 
L 1178 3500 
L 1178 0 
L 603 0 
L 603 3500 
z
M 603 4863 
L 1178 4863 
L 1178 4134 
L 603 4134 
L 603 4863 
z
" id="DejaVuSans-69" transform="scale(0.015625)"/>
       <path d="M 2906 1791 
Q 2906 2416 2648 2759 
Q 2391 3103 1925 3103 
Q 1463 3103 1205 2759 
Q 947 2416 947 1791 
Q 947 1169 1205 825 
Q 1463 481 1925 481 
Q 2391 481 2648 825 
Q 2906 1169 2906 1791 
z
M 3481 434 
Q 3481 -459 3084 -895 
Q 2688 -1331 1869 -1331 
Q 1566 -1331 1297 -1286 
Q 1028 -1241 775 -1147 
L 775 -588 
Q 1028 -725 1275 -790 
Q 1522 -856 1778 -856 
Q 2344 -856 2625 -561 
Q 2906 -266 2906 331 
L 2906 616 
Q 2728 306 2450 153 
Q 2172 0 1784 0 
Q 1141 0 747 490 
Q 353 981 353 1791 
Q 353 2603 747 3093 
Q 1141 3584 1784 3584 
Q 2172 3584 2450 3431 
Q 2728 3278 2906 2969 
L 2906 3500 
L 3481 3500 
L 3481 434 
z
" id="DejaVuSans-67" transform="scale(0.015625)"/>
       <path d="M 1959 3097 
Q 1497 3097 1228 2736 
Q 959 2375 959 1747 
Q 959 1119 1226 758 
Q 1494 397 1959 397 
Q 2419 397 2687 759 
Q 2956 1122 2956 1747 
Q 2956 2369 2687 2733 
Q 2419 3097 1959 3097 
z
M 1959 3584 
Q 2709 3584 3137 3096 
Q 3566 2609 3566 1747 
Q 3566 888 3137 398 
Q 2709 -91 1959 -91 
Q 1206 -91 779 398 
Q 353 888 353 1747 
Q 353 2609 779 3096 
Q 1206 3584 1959 3584 
z
" id="DejaVuSans-6f" transform="scale(0.015625)"/>
       <path d="M 3513 2113 
L 3513 0 
L 2938 0 
L 2938 2094 
Q 2938 2591 2744 2837 
Q 2550 3084 2163 3084 
Q 1697 3084 1428 2787 
Q 1159 2491 1159 1978 
L 1159 0 
L 581 0 
L 581 3500 
L 1159 3500 
L 1159 2956 
Q 1366 3272 1645 3428 
Q 1925 3584 2291 3584 
Q 2894 3584 3203 3211 
Q 3513 2838 3513 2113 
z
" id="DejaVuSans-6e" transform="scale(0.015625)"/>
       <path d="M 3328 2828 
Q 3544 3216 3844 3400 
Q 4144 3584 4550 3584 
Q 5097 3584 5394 3201 
Q 5691 2819 5691 2113 
L 5691 0 
L 5113 0 
L 5113 2094 
Q 5113 2597 4934 2840 
Q 4756 3084 4391 3084 
Q 3944 3084 3684 2787 
Q 3425 2491 3425 1978 
L 3425 0 
L 2847 0 
L 2847 2094 
Q 2847 2600 2669 2842 
Q 2491 3084 2119 3084 
Q 1678 3084 1418 2786 
Q 1159 2488 1159 1978 
L 1159 0 
L 581 0 
L 581 3500 
L 1159 3500 
L 1159 2956 
Q 1356 3278 1631 3431 
Q 1906 3584 2284 3584 
Q 2666 3584 2933 3390 
Q 3200 3197 3328 2828 
z
" id="DejaVuSans-6d" transform="scale(0.015625)"/>
       <path d="M 3597 1894 
L 3597 1613 
L 953 1613 
Q 991 1019 1311 708 
Q 1631 397 2203 397 
Q 2534 397 2845 478 
Q 3156 559 3463 722 
L 3463 178 
Q 3153 47 2828 -22 
Q 2503 -91 2169 -91 
Q 1331 -91 842 396 
Q 353 884 353 1716 
Q 353 2575 817 3079 
Q 1281 3584 2069 3584 
Q 2775 3584 3186 3129 
Q 3597 2675 3597 1894 
z
M 3022 2063 
Q 3016 2534 2758 2815 
Q 2500 3097 2075 3097 
Q 1594 3097 1305 2825 
Q 1016 2553 972 2059 
L 3022 2063 
z
" id="DejaVuSans-65" transform="scale(0.015625)"/>
       <path d="M 1172 4494 
L 1172 3500 
L 2356 3500 
L 2356 3053 
L 1172 3053 
L 1172 1153 
Q 1172 725 1289 603 
Q 1406 481 1766 481 
L 2356 481 
L 2356 0 
L 1766 0 
Q 1100 0 847 248 
Q 594 497 594 1153 
L 594 3053 
L 172 3053 
L 172 3500 
L 594 3500 
L 594 4494 
L 1172 4494 
z
" id="DejaVuSans-74" transform="scale(0.015625)"/>
       <path d="M 3122 3366 
L 3122 2828 
Q 2878 2963 2633 3030 
Q 2388 3097 2138 3097 
Q 1578 3097 1268 2742 
Q 959 2388 959 1747 
Q 959 1106 1268 751 
Q 1578 397 2138 397 
Q 2388 397 2633 464 
Q 2878 531 3122 666 
L 3122 134 
Q 2881 22 2623 -34 
Q 2366 -91 2075 -91 
Q 1284 -91 818 406 
Q 353 903 353 1747 
Q 353 2603 823 3093 
Q 1294 3584 2113 3584 
Q 2378 3584 2631 3529 
Q 2884 3475 3122 3366 
z
" id="DejaVuSans-63" transform="scale(0.015625)"/>
       <path d="M 2375 4863 
L 2375 4384 
L 1825 4384 
Q 1516 4384 1395 4259 
Q 1275 4134 1275 3809 
L 1275 3500 
L 2222 3500 
L 2222 3053 
L 1275 3053 
L 1275 0 
L 697 0 
L 697 3053 
L 147 3053 
L 147 3500 
L 697 3500 
L 697 3744 
Q 697 4328 969 4595 
Q 1241 4863 1831 4863 
L 2375 4863 
z
" id="DejaVuSans-66" transform="scale(0.015625)"/>
       <path d="M 544 1381 
L 544 3500 
L 1119 3500 
L 1119 1403 
Q 1119 906 1312 657 
Q 1506 409 1894 409 
Q 2359 409 2629 706 
Q 2900 1003 2900 1516 
L 2900 3500 
L 3475 3500 
L 3475 0 
L 2900 0 
L 2900 538 
Q 2691 219 2414 64 
Q 2138 -91 1772 -91 
Q 1169 -91 856 284 
Q 544 659 544 1381 
z
M 1991 3584 
L 1991 3584 
z
" id="DejaVuSans-75" transform="scale(0.015625)"/>
       <path d="M 2834 3397 
L 2834 2853 
Q 2591 2978 2328 3040 
Q 2066 3103 1784 3103 
Q 1356 3103 1142 2972 
Q 928 2841 928 2578 
Q 928 2378 1081 2264 
Q 1234 2150 1697 2047 
L 1894 2003 
Q 2506 1872 2764 1633 
Q 3022 1394 3022 966 
Q 3022 478 2636 193 
Q 2250 -91 1575 -91 
Q 1294 -91 989 -36 
Q 684 19 347 128 
L 347 722 
Q 666 556 975 473 
Q 1284 391 1588 391 
Q 1994 391 2212 530 
Q 2431 669 2431 922 
Q 2431 1156 2273 1281 
Q 2116 1406 1581 1522 
L 1381 1569 
Q 847 1681 609 1914 
Q 372 2147 372 2553 
Q 372 3047 722 3315 
Q 1072 3584 1716 3584 
Q 2034 3584 2315 3537 
Q 2597 3491 2834 3397 
z
" id="DejaVuSans-73" transform="scale(0.015625)"/>
      </defs>
      <use xlink:href="#DejaVuSans-54"/>
      <use x="46.333984" xlink:href="#DejaVuSans-72"/>
      <use x="87.447266" xlink:href="#DejaVuSans-69"/>
      <use x="115.230469" xlink:href="#DejaVuSans-67"/>
      <use x="178.707031" xlink:href="#DejaVuSans-6f"/>
      <use x="239.888672" xlink:href="#DejaVuSans-6e"/>
      <use x="303.267578" xlink:href="#DejaVuSans-6f"/>
      <use x="364.449219" xlink:href="#DejaVuSans-6d"/>
      <use x="461.861328" xlink:href="#DejaVuSans-65"/>
      <use x="523.384766" xlink:href="#DejaVuSans-74"/>
      <use x="562.59375" xlink:href="#DejaVuSans-72"/>
      <use x="603.707031" xlink:href="#DejaVuSans-69"/>
      <use x="631.490234" xlink:href="#DejaVuSans-63"/>
      <use x="686.470703" xlink:href="#DejaVuSans-20"/>
      <use x="718.257812" xlink:href="#DejaVuSans-66"/>
      <use x="753.462891" xlink:href="#DejaVuSans-75"/>
      <use x="816.841797" xlink:href="#DejaVuSans-6e"/>
      <use x="880.220703" xlink:href="#DejaVuSans-63"/>
      <use x="935.201172" xlink:href="#DejaVuSans-74"/>
      <use x="974.410156" xlink:href="#DejaVuSans-69"/>
      <use x="1002.193359" xlink:href="#DejaVuSans-6f"/>
      <use x="1063.375" xlink:href="#DejaVuSans-6e"/>
      <use x="1126.753906" xlink:href="#DejaVuSans-73"/>
     </g>
    </g>
   </g>
   <g id="line2d_21">
    <path clip-path="url(#pbb8e309500)" d="M 81.1 165.67 
L 93.773503 152.885418 
L 101.166379 145.750853 
L 107.503131 139.972331 
L 112.783757 135.464839 
L 118.064383 131.290496 
L 122.288884 128.221965 
L 126.513385 125.417865 
L 130.737886 122.897994 
L 134.962387 120.680148 
L 139.186888 118.779986 
L 142.355264 117.571504 
L 145.523639 116.554116 
L 148.692015 115.731864 
L 151.860391 115.108016 
L 155.028766 114.685049 
L 158.197142 114.464644 
L 161.365518 114.447676 
L 164.533894 114.634214 
L 167.702269 115.023516 
L 170.870645 115.614035 
L 174.039021 116.403425 
L 177.207396 117.38855 
L 180.375772 118.565497 
L 183.544148 119.929588 
L 187.768649 122.03002 
L 191.99315 124.438604 
L 196.217651 127.138334 
L 200.442152 130.110145 
L 204.666653 133.333054 
L 209.947279 137.679969 
L 215.227905 142.335601 
L 221.564656 148.25736 
L 228.957533 155.508616 
L 240.574911 167.284868 
L 252.192288 178.975219 
L 259.585165 186.084072 
L 265.921916 191.832019 
L 271.202542 196.308377 
L 276.483169 200.446808 
L 280.707669 203.483433 
L 284.93217 206.253048 
L 289.156671 208.736096 
L 293.381172 210.915043 
L 297.605673 212.774503 
L 300.774049 213.95145 
L 303.942425 214.936575 
L 307.1108 215.725965 
L 310.279176 216.316484 
L 313.447552 216.705786 
L 316.615927 216.892324 
L 319.784303 216.875356 
L 322.952679 216.654951 
L 326.121055 216.231984 
L 329.28943 215.608136 
L 332.457806 214.785884 
L 335.626182 213.768496 
L 338.794557 212.560014 
L 341.962933 211.165239 
L 346.187434 209.025431 
L 350.411935 206.57948 
L 354.636436 203.844657 
L 358.860937 200.840273 
L 363.085438 197.587543 
L 368.366064 193.207538 
L 373.64669 188.523807 
L 379.983442 182.575349 
L 387.376318 175.303147 
L 396.881445 165.67 
L 396.881445 165.67 
" style="fill:none;stroke:#1f77b4;stroke-linecap:square;stroke-width:1.5;"/>
   </g>
   <g id="line2d_22">
    <path clip-path="url(#pbb8e309500)" d="M 81.1 114.43 
L 84.268376 114.531788 
L 87.436751 114.836746 
L 90.605127 115.343664 
L 93.773503 116.050528 
L 96.941879 116.954528 
L 100.110254 118.052074 
L 103.27863 119.338804 
L 107.503131 121.339791 
L 111.727632 123.653805 
L 115.952133 126.264505 
L 120.176634 129.153458 
L 124.401135 132.300263 
L 129.681761 136.562362 
L 134.962387 141.145506 
L 141.299138 146.997665 
L 148.692015 154.193057 
L 159.253267 164.862466 
L 172.982895 178.715081 
L 180.375772 185.836888 
L 186.712524 191.600202 
L 191.99315 196.092189 
L 197.273776 200.248633 
L 201.498277 203.301253 
L 205.722778 206.088149 
L 209.947279 208.589643 
L 214.17178 210.78807 
L 218.396281 212.667907 
L 221.564656 213.860638 
L 224.733032 214.861908 
L 227.901408 215.66774 
L 231.069783 216.274933 
L 234.238159 216.681073 
L 237.406535 216.884547 
L 240.574911 216.884547 
L 243.743286 216.681073 
L 246.911662 216.274933 
L 250.080038 215.66774 
L 253.248413 214.861908 
L 256.416789 213.860638 
L 259.585165 212.667907 
L 262.75354 211.288455 
L 266.978041 209.168306 
L 271.202542 206.741005 
L 275.427043 204.023691 
L 279.651544 201.035552 
L 283.876045 197.797688 
L 289.156671 193.434168 
L 294.437298 188.764422 
L 300.774049 182.829231 
L 308.166926 175.567402 
L 320.840428 162.710565 
L 331.401681 152.10501 
L 338.794557 145.009308 
L 344.075184 140.205573 
L 349.35581 135.6827 
L 354.636436 131.490574 
L 358.860937 128.406217 
L 363.085438 125.584989 
L 367.309939 123.046812 
L 371.53444 120.809608 
L 375.758941 118.889174 
L 378.927316 117.664973 
L 382.095692 116.631496 
L 385.264068 115.792847 
L 388.432443 115.15236 
L 391.600819 114.712577 
L 394.769195 114.475247 
L 396.881445 114.43 
L 396.881445 114.43 
" style="fill:none;stroke:#ff7f0e;stroke-dasharray:5.55,2.4;stroke-dashoffset:0;stroke-width:1.5;"/>
   </g>
   <g id="line2d_23">
    <path clip-path="url(#pbb8e309500)" d="M 81.1 165.67 
L 90.605127 155.861965 
L 95.885753 150.144887 
L 100.110254 145.307879 
L 104.334755 140.135748 
L 107.503131 135.966811 
L 110.671507 131.481177 
L 113.839882 126.601064 
L 117.008258 121.227424 
L 120.176634 115.23127 
L 122.288884 110.805357 
L 124.401135 105.962074 
L 126.513385 100.619668 
L 128.625636 94.674662 
L 130.737886 87.99401 
L 132.850137 80.403594 
L 134.962387 71.670915 
L 137.074637 61.478236 
L 139.186888 49.379401 
L 140.243013 42.42378 
L 141.299138 34.727476 
L 142.355264 26.157535 
L 143.411389 16.547253 
L 145.037402 -1 
M 159.503748 -1 
L 159.533148 361 
M 172.942227 361 
L 172.982895 360.304689 
L 174.039021 344.917838 
L 175.095146 331.638578 
L 176.151271 320.052062 
L 177.207396 309.845542 
L 179.319647 292.664159 
L 181.431897 278.726172 
L 183.544148 267.155057 
L 185.656398 257.363239 
L 187.768649 248.942004 
L 189.880899 241.598177 
L 191.99315 235.115914 
L 194.1054 229.332713 
L 196.217651 224.123828 
L 198.329901 219.391839 
L 200.442152 215.059492 
L 203.610527 209.177671 
L 206.778903 203.894301 
L 209.947279 199.08615 
L 213.115654 194.658223 
L 217.340155 189.218564 
L 221.564656 184.184461 
L 226.845282 178.299526 
L 233.182034 171.618676 
L 252.192288 151.892186 
L 257.472914 145.928707 
L 261.697415 140.804346 
L 264.865791 136.681777 
L 268.034167 132.25385 
L 271.202542 127.445699 
L 274.370918 122.162329 
L 277.539294 116.280508 
L 279.651544 111.948161 
L 281.763795 107.216172 
L 283.876045 102.007287 
L 285.988296 96.224086 
L 288.100546 89.741823 
L 290.212797 82.397996 
L 292.325047 73.976761 
L 294.437298 64.184943 
L 296.549548 52.613828 
L 298.661798 38.675841 
L 299.717924 30.561224 
L 300.774049 21.494458 
L 301.830174 11.287938 
L 302.942085 -1 
M 318.450625 -1 
L 318.480025 361 
M 330.850563 361 
L 331.401681 352.316804 
L 332.457806 338.043515 
L 333.513931 325.655261 
L 334.570056 314.792747 
L 335.626182 305.182465 
L 337.738432 288.91622 
L 339.850683 275.638319 
L 341.962933 264.558711 
L 344.075184 255.142506 
L 346.187434 247.014571 
L 348.299684 239.903956 
L 350.411935 233.61 
L 352.524185 227.980858 
L 354.636436 222.89944 
L 356.748686 218.273939 
L 358.860937 214.031294 
L 362.029313 208.2593 
L 365.197688 203.062805 
L 368.366064 198.323993 
L 371.53444 193.951707 
L 375.758941 188.569585 
L 379.983442 183.578072 
L 385.264068 177.729894 
L 391.600819 171.073686 
L 396.881445 165.67 
L 396.881445 165.67 
" style="fill:none;stroke:#2ca02c;stroke-dasharray:9.6,2.4,1.5,2.4;stroke-dashoffset:0;stroke-width:1.5;"/>
   </g>
   <g id="patch_3">
    <path d="M 81.1 268.15 
L 81.1 63.19 
" style="fill:none;stroke:#000000;stroke-linecap:square;stroke-linejoin:miter;stroke-width:0.8;"/>
   </g>
   <g id="patch_4">
    <path d="M 396.881445 268.15 
L 396.881445 63.19 
" style="fill:none;stroke:#000000;stroke-linecap:square;stroke-linejoin:miter;stroke-width:0.8;"/>
   </g>
   <g id="patch_5">
    <path d="M 81.1 268.15 
L 396.881445 268.15 
" style="fill:none;stroke:#000000;stroke-linecap:square;stroke-linejoin:miter;stroke-width:0.8;"/>
   </g>
   <g id="patch_6">
    <path d="M 81.1 63.19 
L 396.881445 63.19 
" style="fill:none;stroke:#000000;stroke-linecap:square;stroke-linejoin:miter;stroke-width:0.8;"/>
   </g>
   <g id="legend_1">
    <g id="patch_7">
     <path d="M 84.1 52.942 
L 382.45 52.942 
Q 385.45 52.942 385.45 49.942 
L 385.45 29.424813 
Q 385.45 26.424813 382.45 26.424813 
L 84.1 26.424813 
Q 81.1 26.424813 81.1 29.424813 
L 81.1 49.942 
Q 81.1 52.942 84.1 52.942 
z
" style="fill:#ffffff;opacity:0.8;stroke:#cccccc;stroke-linejoin:miter;"/>
    </g>
    <g id="line2d_24">
     <path d="M 87.1 38.572469 
L 117.1 38.572469 
" style="fill:none;stroke:#1f77b4;stroke-linecap:square;stroke-width:1.5;"/>
    </g>
    <g id="line2d_25"/>
    <g id="text_13">
     <!-- $\sin\theta$ -->
     <g transform="translate(129.1 43.822469)scale(0.15 -0.15)">
      <use transform="translate(0 0.234375)" xlink:href="#DejaVuSans-73"/>
      <use transform="translate(52.099609 0.234375)" xlink:href="#DejaVuSans-69"/>
      <use transform="translate(79.882812 0.234375)" xlink:href="#DejaVuSans-6e"/>
      <use transform="translate(159.497395 0.234375)" xlink:href="#DejaVuSans-Oblique-3b8"/>
     </g>
    </g>
    <g id="line2d_26">
     <path d="M 192.25 38.572469 
L 222.25 38.572469 
" style="fill:none;stroke:#ff7f0e;stroke-dasharray:5.55,2.4;stroke-dashoffset:0;stroke-width:1.5;"/>
    </g>
    <g id="line2d_27"/>
    <g id="text_14">
     <!-- $\cos\theta$ -->
     <g transform="translate(234.25 43.822469)scale(0.15 -0.15)">
      <use transform="translate(0 0.234375)" xlink:href="#DejaVuSans-63"/>
      <use transform="translate(54.980469 0.234375)" xlink:href="#DejaVuSans-6f"/>
      <use transform="translate(116.162109 0.234375)" xlink:href="#DejaVuSans-73"/>
      <use transform="translate(184.497395 0.234375)" xlink:href="#DejaVuSans-Oblique-3b8"/>
     </g>
    </g>
    <g id="line2d_28">
     <path d="M 301.15 38.572469 
L 331.15 38.572469 
" style="fill:none;stroke:#2ca02c;stroke-dasharray:9.6,2.4,1.5,2.4;stroke-dashoffset:0;stroke-width:1.5;"/>
    </g>
    <g id="line2d_29"/>
    <g id="text_15">
     <!-- $\tan\theta$ -->
     <g transform="translate(343.15 43.822469)scale(0.15 -0.15)">
      <use transform="translate(0 0.234375)" xlink:href="#DejaVuSans-74"/>
      <use transform="translate(39.208984 0.234375)" xlink:href="#DejaVuSans-61"/>
      <use transform="translate(100.488281 0.234375)" xlink:href="#DejaVuSans-6e"/>
      <use transform="translate(180.102864 0.234375)" xlink:href="#DejaVuSans-Oblique-3b8"/>
     </g>
    </g>
   </g>
  </g>
 </g>
 <defs>
  <clipPath id="pbb8e309500">
   <rect height="204.96" width="315.781445" x="81.1" y="63.19"/>
  </clipPath>
 </defs>
</svg>
